<?xml version="1.0" encoding="iso-8859-1"?>
<!-- Generator: Adobe Illustrator 19.0.0, SVG Export Plug-In . SVG Version: 6.00 Build 0)  -->
<svg version="1.1" id="Layer_1" xmlns="http://www.w3.org/2000/svg" xmlns:xlink="http://www.w3.org/1999/xlink" x="0px" y="0px"
	 viewBox="0 0 512 512" style="enable-background:new 0 0 512 512;" xml:space="preserve">
<g>
	<g>
		<path d="M421.863,21.067c-9.789-8.333-24.475-7.153-32.807,2.634c-8.332,9.787-7.151,24.475,2.636,32.808
			c46.876,39.906,73.762,98.065,73.762,159.566c0,12.853,10.42,23.273,23.273,23.273c12.853,0,23.273-10.42,23.273-23.273
			C512,140.911,479.147,69.831,421.863,21.067z"/>
	</g>
</g>
<g>
	<g>
		<path d="M122.944,23.703c-8.332-9.787-23.021-10.965-32.807-2.634C32.853,69.835,0,140.913,0,216.076
			c0,12.853,10.42,23.273,23.273,23.273c12.853,0,23.273-10.42,23.273-23.273c0-61.499,26.886-119.656,73.762-159.564
			C130.095,48.18,131.275,33.492,122.944,23.703z"/>
	</g>
</g>
<g>
	<g>
		<path d="M393.05,293.062V190.218c0-67.64-49.254-123.982-113.777-135.067V38.79c0-12.853-10.42-23.273-23.273-23.273
			c-12.853,0-23.273,10.42-23.273,23.273v16.362C168.203,66.237,118.948,122.58,118.948,190.22v102.844
			c-32.886,9.996-56.888,40.605-56.888,76.716c0,44.201,35.961,80.162,80.162,80.162h47.964
			c9.607,27.086,35.475,46.544,65.814,46.544c30.34,0,56.207-19.458,65.814-46.544h47.964c44.201,0,80.162-35.961,80.162-80.162
			C449.939,333.668,425.937,303.06,393.05,293.062z M369.777,403.396H142.223c-18.536,0-33.617-15.081-33.617-33.617
			c0-18.534,15.079-33.615,33.615-33.615c12.853,0,23.273-10.42,23.273-23.273V190.22c0-49.904,40.6-90.506,90.506-90.506
			c49.904,0,90.505,40.602,90.505,90.506v122.672c0,12.853,10.42,23.273,23.273,23.273c18.536,0,33.617,15.081,33.617,33.615
			C403.394,388.316,388.313,403.396,369.777,403.396z"/>
	</g>
</g>
<g>
</g>
<g>
</g>
<g>
</g>
<g>
</g>
<g>
</g>
<g>
</g>
<g>
</g>
<g>
</g>
<g>
</g>
<g>
</g>
<g>
</g>
<g>
</g>
<g>
</g>
<g>
</g>
<g>
</g>
</svg>
